<?xml version="1.0" encoding="UTF-8" standalone="no"?>
<!DOCTYPE svg PUBLIC "-//W3C//DTD SVG 1.1//EN"
 "http://www.w3.org/Graphics/SVG/1.1/DTD/svg11.dtd">
<!-- Generated by graphviz version 2.47.1 (20210417.1919)
 -->
<!-- Pages: 1 -->
<svg width="2995pt" height="479pt"
 viewBox="0.00 0.00 2995.00 479.00" xmlns="http://www.w3.org/2000/svg" xmlns:xlink="http://www.w3.org/1999/xlink">
<g id="graph0" class="graph" transform="scale(1 1) rotate(0) translate(4 475)">
<polygon fill="white" stroke="transparent" points="-4,4 -4,-475 2991,-475 2991,4 -4,4"/>
<!-- cf2b72dc&#45;bb10&#45;11eb&#45;a1af&#45;40b89af7b7be -->
<g id="node1" class="node">
<title>cf2b72dc&#45;bb10&#45;11eb&#45;a1af&#45;40b89af7b7be</title>
<ellipse fill="none" stroke="black" cx="1406" cy="-453" rx="83.39" ry="18"/>
<text text-anchor="middle" x="1406" y="-449.3" font-family="Times New Roman,serif" font-size="14.00">39.55555555555556</text>
</g>
<!-- cf2b72dd&#45;bb10&#45;11eb&#45;b10c&#45;40b89af7b7be -->
<g id="node2" class="node">
<title>cf2b72dd&#45;bb10&#45;11eb&#45;b10c&#45;40b89af7b7be</title>
<ellipse fill="none" stroke="black" cx="1045" cy="-366" rx="83.39" ry="18"/>
<text text-anchor="middle" x="1045" y="-362.3" font-family="Times New Roman,serif" font-size="14.00">39.55555555555556</text>
</g>
<!-- cf2b72dc&#45;bb10&#45;11eb&#45;a1af&#45;40b89af7b7be&#45;&gt;cf2b72dd&#45;bb10&#45;11eb&#45;b10c&#45;40b89af7b7be -->
<g id="edge1" class="edge">
<title>cf2b72dc&#45;bb10&#45;11eb&#45;a1af&#45;40b89af7b7be&#45;&gt;cf2b72dd&#45;bb10&#45;11eb&#45;b10c&#45;40b89af7b7be</title>
<path fill="none" stroke="black" d="M1326.48,-447.47C1252.17,-442.37 1147.11,-432.68 1109,-417 1094.31,-410.96 1080.15,-400.55 1068.91,-390.79"/>
<polygon fill="black" stroke="black" points="1071.03,-387.99 1061.27,-383.87 1066.33,-393.18 1071.03,-387.99"/>
<text text-anchor="middle" x="1395" y="-405.8" font-family="Times New Roman,serif" font-size="14.00">((1 x2 + 1 x27005599420354105/9007199254740992 x3 + 7005599420354105/9007199254740992 x3))</text>
</g>
<!-- cf2b72de&#45;bb10&#45;11eb&#45;93fa&#45;40b89af7b7be -->
<g id="node3" class="node">
<title>cf2b72de&#45;bb10&#45;11eb&#45;93fa&#45;40b89af7b7be</title>
<ellipse fill="none" stroke="black" cx="1752" cy="-366" rx="27" ry="18"/>
<text text-anchor="middle" x="1752" y="-362.3" font-family="Times New Roman,serif" font-size="14.00">38.0</text>
</g>
<!-- cf2b72dc&#45;bb10&#45;11eb&#45;a1af&#45;40b89af7b7be&#45;&gt;cf2b72de&#45;bb10&#45;11eb&#45;93fa&#45;40b89af7b7be -->
<g id="edge2" class="edge">
<title>cf2b72dc&#45;bb10&#45;11eb&#45;a1af&#45;40b89af7b7be&#45;&gt;cf2b72de&#45;bb10&#45;11eb&#45;93fa&#45;40b89af7b7be</title>
<path fill="none" stroke="black" d="M1483.95,-446.69C1553.5,-441.14 1649.62,-431.25 1685,-417 1701.41,-410.39 1717.38,-398.74 1729.61,-388.35"/>
<polygon fill="black" stroke="black" points="1732.26,-390.68 1737.44,-381.43 1727.63,-385.43 1732.26,-390.68"/>
<text text-anchor="middle" x="2035.5" y="-405.8" font-family="Times New Roman,serif" font-size="14.00">((1 x2 + 1 x21 x3 + 1 x36004799503160661/36028797018963968 x4 + 6004799503160661/36028797018963968 x4))</text>
</g>
<!-- cf2b72df&#45;bb10&#45;11eb&#45;80f7&#45;40b89af7b7be -->
<g id="node4" class="node">
<title>cf2b72df&#45;bb10&#45;11eb&#45;80f7&#45;40b89af7b7be</title>
<ellipse fill="none" stroke="black" cx="447" cy="-279" rx="83.39" ry="18"/>
<text text-anchor="middle" x="447" y="-275.3" font-family="Times New Roman,serif" font-size="14.00">39.55555555555556</text>
</g>
<!-- cf2b72dd&#45;bb10&#45;11eb&#45;b10c&#45;40b89af7b7be&#45;&gt;cf2b72df&#45;bb10&#45;11eb&#45;80f7&#45;40b89af7b7be -->
<g id="edge3" class="edge">
<title>cf2b72dd&#45;bb10&#45;11eb&#45;b10c&#45;40b89af7b7be&#45;&gt;cf2b72df&#45;bb10&#45;11eb&#45;80f7&#45;40b89af7b7be</title>
<path fill="none" stroke="black" d="M962.35,-363.9C838.46,-361.49 610.84,-353.86 533,-330 513.08,-323.89 492.83,-312.44 476.99,-302.03"/>
<polygon fill="black" stroke="black" points="478.92,-299.11 468.67,-296.39 474.99,-304.9 478.92,-299.11"/>
<text text-anchor="middle" x="787" y="-318.8" font-family="Times New Roman,serif" font-size="14.00">((7005599420354105/9007199254740992 x3 + 7005599420354105/9007199254740992 x3))</text>
</g>
<!-- cf2b72e0&#45;bb10&#45;11eb&#45;bdb1&#45;40b89af7b7be -->
<g id="node5" class="node">
<title>cf2b72e0&#45;bb10&#45;11eb&#45;bdb1&#45;40b89af7b7be</title>
<ellipse fill="none" stroke="black" cx="1045" cy="-279" rx="27" ry="18"/>
<text text-anchor="middle" x="1045" y="-275.3" font-family="Times New Roman,serif" font-size="14.00">38.0</text>
</g>
<!-- cf2b72dd&#45;bb10&#45;11eb&#45;b10c&#45;40b89af7b7be&#45;&gt;cf2b72e0&#45;bb10&#45;11eb&#45;bdb1&#45;40b89af7b7be -->
<g id="edge4" class="edge">
<title>cf2b72dd&#45;bb10&#45;11eb&#45;b10c&#45;40b89af7b7be&#45;&gt;cf2b72e0&#45;bb10&#45;11eb&#45;bdb1&#45;40b89af7b7be</title>
<path fill="none" stroke="black" d="M1045,-347.8C1045,-336.16 1045,-320.55 1045,-307.24"/>
<polygon fill="black" stroke="black" points="1048.5,-307.18 1045,-297.18 1041.5,-307.18 1048.5,-307.18"/>
<text text-anchor="middle" x="1331" y="-318.8" font-family="Times New Roman,serif" font-size="14.00">((1 x3 + 1 x37505999378950827/9007199254740992 x4 + 7505999378950827/9007199254740992 x4))</text>
</g>
<!-- cf2b72e1&#45;bb10&#45;11eb&#45;864e&#45;40b89af7b7be -->
<g id="node6" class="node">
<title>cf2b72e1&#45;bb10&#45;11eb&#45;864e&#45;40b89af7b7be</title>
<ellipse fill="none" stroke="black" cx="1756" cy="-279" rx="27" ry="18"/>
<text text-anchor="middle" x="1756" y="-275.3" font-family="Times New Roman,serif" font-size="14.00">38.0</text>
</g>
<!-- cf2b72de&#45;bb10&#45;11eb&#45;93fa&#45;40b89af7b7be&#45;&gt;cf2b72e1&#45;bb10&#45;11eb&#45;864e&#45;40b89af7b7be -->
<g id="edge5" class="edge">
<title>cf2b72de&#45;bb10&#45;11eb&#45;93fa&#45;40b89af7b7be&#45;&gt;cf2b72e1&#45;bb10&#45;11eb&#45;864e&#45;40b89af7b7be</title>
<path fill="none" stroke="black" d="M1752.07,-347.87C1752.17,-338.21 1752.42,-325.92 1753,-315 1753.14,-312.44 1753.31,-309.78 1753.5,-307.12"/>
<polygon fill="black" stroke="black" points="1756.99,-307.32 1754.31,-297.07 1750.02,-306.76 1756.99,-307.32"/>
<text text-anchor="middle" x="2046" y="-318.8" font-family="Times New Roman,serif" font-size="14.00">((1 x3 + 1 x36004799503160661/36028797018963968 x4 + 6004799503160661/36028797018963968 x4))</text>
</g>
<!-- cf2b72e2&#45;bb10&#45;11eb&#45;81cb&#45;40b89af7b7be -->
<g id="node7" class="node">
<title>cf2b72e2&#45;bb10&#45;11eb&#45;81cb&#45;40b89af7b7be</title>
<ellipse fill="none" stroke="black" cx="2361" cy="-279" rx="27" ry="18"/>
<text text-anchor="middle" x="2361" y="-275.3" font-family="Times New Roman,serif" font-size="14.00">36.0</text>
</g>
<!-- cf2b72de&#45;bb10&#45;11eb&#45;93fa&#45;40b89af7b7be&#45;&gt;cf2b72e2&#45;bb10&#45;11eb&#45;81cb&#45;40b89af7b7be -->
<g id="edge6" class="edge">
<title>cf2b72de&#45;bb10&#45;11eb&#45;93fa&#45;40b89af7b7be&#45;&gt;cf2b72e2&#45;bb10&#45;11eb&#45;81cb&#45;40b89af7b7be</title>
<path fill="none" stroke="black" d="M1779.32,-365.02C1888.88,-364.89 2292.7,-362.22 2339,-330 2346.81,-324.57 2351.87,-315.72 2355.15,-306.97"/>
<polygon fill="black" stroke="black" points="2358.52,-307.9 2358.13,-297.31 2351.83,-305.83 2358.52,-307.9"/>
<text text-anchor="middle" x="2669" y="-318.8" font-family="Times New Roman,serif" font-size="14.00">((1 x3 + 1 x31 x4 + 1 x46004799503160661/9007199254740992 x5 + 6004799503160661/9007199254740992 x5))</text>
</g>
<!-- cf2b72e4&#45;bb10&#45;11eb&#45;b09c&#45;40b89af7b7be -->
<g id="node8" class="node">
<title>cf2b72e4&#45;bb10&#45;11eb&#45;b09c&#45;40b89af7b7be</title>
<ellipse fill="none" stroke="black" cx="428" cy="-192" rx="27" ry="18"/>
<text text-anchor="middle" x="428" y="-188.3" font-family="Times New Roman,serif" font-size="14.00">38.0</text>
</g>
<!-- cf2b72df&#45;bb10&#45;11eb&#45;80f7&#45;40b89af7b7be&#45;&gt;cf2b72e4&#45;bb10&#45;11eb&#45;b09c&#45;40b89af7b7be -->
<g id="edge7" class="edge">
<title>cf2b72df&#45;bb10&#45;11eb&#45;80f7&#45;40b89af7b7be&#45;&gt;cf2b72e4&#45;bb10&#45;11eb&#45;b09c&#45;40b89af7b7be</title>
<path fill="none" stroke="black" d="M443.16,-260.8C440.54,-249.09 437.02,-233.34 434.03,-219.97"/>
<polygon fill="black" stroke="black" points="437.37,-218.88 431.77,-209.89 430.54,-220.41 437.37,-218.88"/>
<text text-anchor="middle" x="732" y="-231.8" font-family="Times New Roman,serif" font-size="14.00">((1 x4 + 1 x46004799503160661/18014398509481984 x5 + 6004799503160661/18014398509481984 x5))</text>
</g>
<!-- cf2b72e5&#45;bb10&#45;11eb&#45;8ff8&#45;40b89af7b7be -->
<g id="node9" class="node">
<title>cf2b72e5&#45;bb10&#45;11eb&#45;8ff8&#45;40b89af7b7be</title>
<ellipse fill="none" stroke="black" cx="1037" cy="-192" rx="27" ry="18"/>
<text text-anchor="middle" x="1037" y="-188.3" font-family="Times New Roman,serif" font-size="14.00">38.0</text>
</g>
<!-- cf2b72e0&#45;bb10&#45;11eb&#45;bdb1&#45;40b89af7b7be&#45;&gt;cf2b72e5&#45;bb10&#45;11eb&#45;8ff8&#45;40b89af7b7be -->
<g id="edge8" class="edge">
<title>cf2b72e0&#45;bb10&#45;11eb&#45;bdb1&#45;40b89af7b7be&#45;&gt;cf2b72e5&#45;bb10&#45;11eb&#45;8ff8&#45;40b89af7b7be</title>
<path fill="none" stroke="black" d="M1040.97,-261C1039.79,-255.31 1038.65,-248.91 1038,-243 1037.2,-235.69 1036.82,-227.75 1036.67,-220.39"/>
<polygon fill="black" stroke="black" points="1040.17,-220.15 1036.59,-210.17 1033.17,-220.2 1040.17,-220.15"/>
<text text-anchor="middle" x="1292" y="-231.8" font-family="Times New Roman,serif" font-size="14.00">((7505999378950827/9007199254740992 x4 + 7505999378950827/9007199254740992 x4))</text>
</g>
<!-- cf2b72e6&#45;bb10&#45;11eb&#45;800f&#45;40b89af7b7be -->
<g id="node10" class="node">
<title>cf2b72e6&#45;bb10&#45;11eb&#45;800f&#45;40b89af7b7be</title>
<ellipse fill="none" stroke="black" cx="1568" cy="-192" rx="27" ry="18"/>
<text text-anchor="middle" x="1568" y="-188.3" font-family="Times New Roman,serif" font-size="14.00">35</text>
</g>
<!-- cf2b72e0&#45;bb10&#45;11eb&#45;bdb1&#45;40b89af7b7be&#45;&gt;cf2b72e6&#45;bb10&#45;11eb&#45;800f&#45;40b89af7b7be -->
<g id="edge9" class="edge">
<title>cf2b72e0&#45;bb10&#45;11eb&#45;bdb1&#45;40b89af7b7be&#45;&gt;cf2b72e6&#45;bb10&#45;11eb&#45;800f&#45;40b89af7b7be</title>
<path fill="none" stroke="black" d="M1072.27,-277.72C1171.16,-276.5 1507.13,-270.34 1546,-243 1553.78,-237.53 1558.84,-228.67 1562.12,-219.92"/>
<polygon fill="black" stroke="black" points="1565.49,-220.86 1565.11,-210.28 1558.8,-218.79 1565.49,-220.86"/>
<text text-anchor="middle" x="1644" y="-231.8" font-family="Times New Roman,serif" font-size="14.00">((1 x4 + 1 x41 x5 + 1 x51 x6))</text>
</g>
<!-- cf2b72e7&#45;bb10&#45;11eb&#45;a350&#45;40b89af7b7be -->
<g id="node11" class="node">
<title>cf2b72e7&#45;bb10&#45;11eb&#45;a350&#45;40b89af7b7be</title>
<ellipse fill="none" stroke="black" cx="1761" cy="-192" rx="27" ry="18"/>
<text text-anchor="middle" x="1761" y="-188.3" font-family="Times New Roman,serif" font-size="14.00">38.0</text>
</g>
<!-- cf2b72e1&#45;bb10&#45;11eb&#45;864e&#45;40b89af7b7be&#45;&gt;cf2b72e7&#45;bb10&#45;11eb&#45;a350&#45;40b89af7b7be -->
<g id="edge10" class="edge">
<title>cf2b72e1&#45;bb10&#45;11eb&#45;864e&#45;40b89af7b7be&#45;&gt;cf2b72e7&#45;bb10&#45;11eb&#45;a350&#45;40b89af7b7be</title>
<path fill="none" stroke="black" d="M1757.01,-260.8C1757.7,-249.16 1758.61,-233.55 1759.4,-220.24"/>
<polygon fill="black" stroke="black" points="1762.9,-220.36 1759.99,-210.18 1755.91,-219.95 1762.9,-220.36"/>
<text text-anchor="middle" x="2020" y="-231.8" font-family="Times New Roman,serif" font-size="14.00">((6004799503160661/36028797018963968 x4 + 6004799503160661/36028797018963968 x4))</text>
</g>
<!-- cf2b72eb&#45;bb10&#45;11eb&#45;b14d&#45;40b89af7b7be -->
<g id="node12" class="node">
<title>cf2b72eb&#45;bb10&#45;11eb&#45;b14d&#45;40b89af7b7be</title>
<ellipse fill="none" stroke="black" cx="27" cy="-105" rx="27" ry="18"/>
<text text-anchor="middle" x="27" y="-101.3" font-family="Times New Roman,serif" font-size="14.00">38.0</text>
</g>
<!-- cf2b72e4&#45;bb10&#45;11eb&#45;b09c&#45;40b89af7b7be&#45;&gt;cf2b72eb&#45;bb10&#45;11eb&#45;b14d&#45;40b89af7b7be -->
<g id="edge11" class="edge">
<title>cf2b72e4&#45;bb10&#45;11eb&#45;b09c&#45;40b89af7b7be&#45;&gt;cf2b72eb&#45;bb10&#45;11eb&#45;b14d&#45;40b89af7b7be</title>
<path fill="none" stroke="black" d="M401,-190.72C314.67,-189.57 49.46,-183.76 24,-156 18.32,-149.8 17.35,-141.16 18.36,-132.79"/>
<polygon fill="black" stroke="black" points="21.8,-133.41 20.37,-122.91 14.94,-132.01 21.8,-133.41"/>
<text text-anchor="middle" x="285" y="-144.8" font-family="Times New Roman,serif" font-size="14.00">((6004799503160661/18014398509481984 x5 + 6004799503160661/18014398509481984 x5))</text>
</g>
<!-- cf2b72ec&#45;bb10&#45;11eb&#45;bda6&#45;40b89af7b7be -->
<g id="node13" class="node">
<title>cf2b72ec&#45;bb10&#45;11eb&#45;bda6&#45;40b89af7b7be</title>
<ellipse fill="none" stroke="black" cx="572" cy="-105" rx="27" ry="18"/>
<text text-anchor="middle" x="572" y="-101.3" font-family="Times New Roman,serif" font-size="14.00">37.2</text>
</g>
<!-- cf2b72e4&#45;bb10&#45;11eb&#45;b09c&#45;40b89af7b7be&#45;&gt;cf2b72ec&#45;bb10&#45;11eb&#45;bda6&#45;40b89af7b7be -->
<g id="edge12" class="edge">
<title>cf2b72e4&#45;bb10&#45;11eb&#45;b09c&#45;40b89af7b7be&#45;&gt;cf2b72ec&#45;bb10&#45;11eb&#45;bda6&#45;40b89af7b7be</title>
<path fill="none" stroke="black" d="M454.89,-189.76C481.91,-187.16 523.28,-179.33 550,-156 556.98,-149.9 561.84,-141.17 565.18,-132.71"/>
<polygon fill="black" stroke="black" points="568.55,-133.66 568.43,-123.07 561.92,-131.42 568.55,-133.66"/>
<text text-anchor="middle" x="720.5" y="-144.8" font-family="Times New Roman,serif" font-size="14.00">((1 x5 + 1 x53602879701896397/4503599627370496 x6))</text>
</g>
<!-- cf2b72ee&#45;bb10&#45;11eb&#45;a843&#45;40b89af7b7be -->
<g id="node14" class="node">
<title>cf2b72ee&#45;bb10&#45;11eb&#45;a843&#45;40b89af7b7be</title>
<ellipse fill="none" stroke="black" cx="1037" cy="-105" rx="27" ry="18"/>
<text text-anchor="middle" x="1037" y="-101.3" font-family="Times New Roman,serif" font-size="14.00">37.6</text>
</g>
<!-- cf2b72e5&#45;bb10&#45;11eb&#45;8ff8&#45;40b89af7b7be&#45;&gt;cf2b72ee&#45;bb10&#45;11eb&#45;a843&#45;40b89af7b7be -->
<g id="edge13" class="edge">
<title>cf2b72e5&#45;bb10&#45;11eb&#45;8ff8&#45;40b89af7b7be&#45;&gt;cf2b72ee&#45;bb10&#45;11eb&#45;a843&#45;40b89af7b7be</title>
<path fill="none" stroke="black" d="M1037,-173.8C1037,-162.16 1037,-146.55 1037,-133.24"/>
<polygon fill="black" stroke="black" points="1040.5,-133.18 1037,-123.18 1033.5,-133.18 1040.5,-133.18"/>
<text text-anchor="middle" x="1196.5" y="-144.8" font-family="Times New Roman,serif" font-size="14.00">((1 x5 + 1 x53602879701896397/9007199254740992 x6))</text>
</g>
<!-- cf2b72f2&#45;bb10&#45;11eb&#45;b471&#45;40b89af7b7be -->
<g id="node15" class="node">
<title>cf2b72f2&#45;bb10&#45;11eb&#45;b471&#45;40b89af7b7be</title>
<ellipse fill="none" stroke="black" cx="1761" cy="-105" rx="27" ry="18"/>
<text text-anchor="middle" x="1761" y="-101.3" font-family="Times New Roman,serif" font-size="14.00">38.0</text>
</g>
<!-- cf2b72e7&#45;bb10&#45;11eb&#45;a350&#45;40b89af7b7be&#45;&gt;cf2b72f2&#45;bb10&#45;11eb&#45;b471&#45;40b89af7b7be -->
<g id="edge14" class="edge">
<title>cf2b72e7&#45;bb10&#45;11eb&#45;a350&#45;40b89af7b7be&#45;&gt;cf2b72f2&#45;bb10&#45;11eb&#45;b471&#45;40b89af7b7be</title>
<path fill="none" stroke="black" d="M1761,-173.8C1761,-162.16 1761,-146.55 1761,-133.24"/>
<polygon fill="black" stroke="black" points="1764.5,-133.18 1761,-123.18 1757.5,-133.18 1764.5,-133.18"/>
<text text-anchor="middle" x="2022" y="-144.8" font-family="Times New Roman,serif" font-size="14.00">((6004799503160661/18014398509481984 x5 + 6004799503160661/18014398509481984 x5))</text>
</g>
<!-- cf2b72f4&#45;bb10&#45;11eb&#45;881a&#45;40b89af7b7be -->
<g id="node16" class="node">
<title>cf2b72f4&#45;bb10&#45;11eb&#45;881a&#45;40b89af7b7be</title>
<ellipse fill="none" stroke="black" cx="27" cy="-18" rx="27" ry="18"/>
<text text-anchor="middle" x="27" y="-14.3" font-family="Times New Roman,serif" font-size="14.00">37.8</text>
</g>
<!-- cf2b72eb&#45;bb10&#45;11eb&#45;b14d&#45;40b89af7b7be&#45;&gt;cf2b72f4&#45;bb10&#45;11eb&#45;881a&#45;40b89af7b7be -->
<g id="edge15" class="edge">
<title>cf2b72eb&#45;bb10&#45;11eb&#45;b14d&#45;40b89af7b7be&#45;&gt;cf2b72f4&#45;bb10&#45;11eb&#45;881a&#45;40b89af7b7be</title>
<path fill="none" stroke="black" d="M27,-86.8C27,-75.16 27,-59.55 27,-46.24"/>
<polygon fill="black" stroke="black" points="30.5,-46.18 27,-36.18 23.5,-46.18 30.5,-46.18"/>
<text text-anchor="middle" x="158" y="-57.8" font-family="Times New Roman,serif" font-size="14.00">((3602879701896397/18014398509481984 x6))</text>
</g>
<!-- cf2b72f5&#45;bb10&#45;11eb&#45;9efe&#45;40b89af7b7be -->
<g id="node17" class="node">
<title>cf2b72f5&#45;bb10&#45;11eb&#45;9efe&#45;40b89af7b7be</title>
<ellipse fill="none" stroke="black" cx="572" cy="-18" rx="27" ry="18"/>
<text text-anchor="middle" x="572" y="-14.3" font-family="Times New Roman,serif" font-size="14.00">37.2</text>
</g>
<!-- cf2b72ec&#45;bb10&#45;11eb&#45;bda6&#45;40b89af7b7be&#45;&gt;cf2b72f5&#45;bb10&#45;11eb&#45;9efe&#45;40b89af7b7be -->
<g id="edge16" class="edge">
<title>cf2b72ec&#45;bb10&#45;11eb&#45;bda6&#45;40b89af7b7be&#45;&gt;cf2b72f5&#45;bb10&#45;11eb&#45;9efe&#45;40b89af7b7be</title>
<path fill="none" stroke="black" d="M572,-86.8C572,-75.16 572,-59.55 572,-46.24"/>
<polygon fill="black" stroke="black" points="575.5,-46.18 572,-36.18 568.5,-46.18 575.5,-46.18"/>
<text text-anchor="middle" x="700" y="-57.8" font-family="Times New Roman,serif" font-size="14.00">((3602879701896397/4503599627370496 x6))</text>
</g>
<!-- cf2b72f7&#45;bb10&#45;11eb&#45;b484&#45;40b89af7b7be -->
<g id="node18" class="node">
<title>cf2b72f7&#45;bb10&#45;11eb&#45;b484&#45;40b89af7b7be</title>
<ellipse fill="none" stroke="black" cx="882" cy="-18" rx="27" ry="18"/>
<text text-anchor="middle" x="882" y="-14.3" font-family="Times New Roman,serif" font-size="14.00">37.6</text>
</g>
<!-- cf2b72ee&#45;bb10&#45;11eb&#45;a843&#45;40b89af7b7be&#45;&gt;cf2b72f7&#45;bb10&#45;11eb&#45;b484&#45;40b89af7b7be -->
<g id="edge17" class="edge">
<title>cf2b72ee&#45;bb10&#45;11eb&#45;a843&#45;40b89af7b7be&#45;&gt;cf2b72f7&#45;bb10&#45;11eb&#45;b484&#45;40b89af7b7be</title>
<path fill="none" stroke="black" d="M1010.04,-102.01C969.32,-98.37 895.14,-89.1 879,-69 873.79,-62.52 872.9,-53.9 873.81,-45.65"/>
<polygon fill="black" stroke="black" points="877.3,-46.06 875.76,-35.58 870.43,-44.73 877.3,-46.06"/>
<text text-anchor="middle" x="1007" y="-57.8" font-family="Times New Roman,serif" font-size="14.00">((3602879701896397/9007199254740992 x6))</text>
</g>
<!-- cf2b72f8&#45;bb10&#45;11eb&#45;93bb&#45;40b89af7b7be -->
<g id="node19" class="node">
<title>cf2b72f8&#45;bb10&#45;11eb&#45;93bb&#45;40b89af7b7be</title>
<ellipse fill="none" stroke="black" cx="1161" cy="-18" rx="27" ry="18"/>
<text text-anchor="middle" x="1161" y="-14.3" font-family="Times New Roman,serif" font-size="14.00">37</text>
</g>
<!-- cf2b72ee&#45;bb10&#45;11eb&#45;a843&#45;40b89af7b7be&#45;&gt;cf2b72f8&#45;bb10&#45;11eb&#45;93bb&#45;40b89af7b7be -->
<g id="edge18" class="edge">
<title>cf2b72ee&#45;bb10&#45;11eb&#45;a843&#45;40b89af7b7be&#45;&gt;cf2b72f8&#45;bb10&#45;11eb&#45;93bb&#45;40b89af7b7be</title>
<path fill="none" stroke="black" d="M1063.45,-100.9C1086.02,-96.99 1118.05,-88.26 1139,-69 1145.82,-62.73 1150.64,-53.95 1154,-45.5"/>
<polygon fill="black" stroke="black" points="1157.36,-46.5 1157.29,-35.91 1150.73,-44.23 1157.36,-46.5"/>
<text text-anchor="middle" x="1171.5" y="-57.8" font-family="Times New Roman,serif" font-size="14.00">((1 x6))</text>
</g>
<!-- cf2b72fa&#45;bb10&#45;11eb&#45;9d3b&#45;40b89af7b7be -->
<g id="node20" class="node">
<title>cf2b72fa&#45;bb10&#45;11eb&#45;9d3b&#45;40b89af7b7be</title>
<ellipse fill="none" stroke="black" cx="1761" cy="-18" rx="27" ry="18"/>
<text text-anchor="middle" x="1761" y="-14.3" font-family="Times New Roman,serif" font-size="14.00">37.8</text>
</g>
<!-- cf2b72f2&#45;bb10&#45;11eb&#45;b471&#45;40b89af7b7be&#45;&gt;cf2b72fa&#45;bb10&#45;11eb&#45;9d3b&#45;40b89af7b7be -->
<g id="edge19" class="edge">
<title>cf2b72f2&#45;bb10&#45;11eb&#45;b471&#45;40b89af7b7be&#45;&gt;cf2b72fa&#45;bb10&#45;11eb&#45;9d3b&#45;40b89af7b7be</title>
<path fill="none" stroke="black" d="M1761,-86.8C1761,-75.16 1761,-59.55 1761,-46.24"/>
<polygon fill="black" stroke="black" points="1764.5,-46.18 1761,-36.18 1757.5,-46.18 1764.5,-46.18"/>
<text text-anchor="middle" x="1892" y="-57.8" font-family="Times New Roman,serif" font-size="14.00">((3602879701896397/18014398509481984 x6))</text>
</g>
</g>
</svg>
